<?xml version="1.0" encoding="UTF-8"?>
<!-- Converted by misc2svg (http://www.network-science.de/tools/misc2svg/) -->
<svg xmlns="http://www.w3.org/2000/svg" xmlns:xlink="http://www.w3.org/1999/xlink" width="243pt" height="212pt" viewBox="0 0 243 212" version="1.1">
<g id="misc2svg">
<path style="fill:none;stroke-width:0.3985;stroke-linecap:butt;stroke-linejoin:miter;stroke:rgb(0%,0%,0%);stroke-opacity:1;stroke-miterlimit:10;" d="M -0.000875 0 L 171.661625 0 " transform="matrix(1.25,0,0,-1.25,6.97375,126.0625)"/>
<path style=" stroke:none;fill-rule:nonzero;fill:rgb(0%,0%,0%);fill-opacity:1;" d="M 224.042969 126.0625 L 220.058594 124.070312 L 221.554688 126.0625 L 220.058594 128.054688 "/>
<path style=" stroke:none;fill-rule:nonzero;fill:rgb(0%,0%,0%);fill-opacity:1;" d="M 232.347656 136.34375 C 232.347656 136.207031 232.25 136.207031 232.210938 136.207031 C 232.09375 136.207031 232.074219 136.246094 232.015625 136.382812 C 231.488281 137.691406 230.824219 137.984375 230.394531 137.984375 C 230.140625 137.984375 230.003906 137.828125 230.003906 137.417969 C 230.003906 137.105469 230.042969 137.027344 230.082031 136.8125 L 231 133.140625 L 232.171875 133.140625 C 232.425781 133.140625 232.5625 133.140625 232.5625 132.886719 C 232.5625 132.75 232.425781 132.75 232.210938 132.75 L 231.117188 132.75 C 231.566406 130.972656 231.625 130.738281 231.625 130.660156 C 231.625 130.445312 231.46875 130.328125 231.253906 130.328125 C 231.214844 130.328125 230.863281 130.328125 230.765625 130.777344 L 230.277344 132.75 L 229.105469 132.75 C 228.851562 132.75 228.734375 132.75 228.734375 132.984375 C 228.734375 133.140625 228.832031 133.140625 229.085938 133.140625 L 230.179688 133.140625 C 229.28125 136.675781 229.222656 136.890625 229.222656 137.105469 C 229.222656 137.789062 229.691406 138.257812 230.375 138.257812 C 231.644531 138.257812 232.347656 136.441406 232.347656 136.34375 Z M 232.347656 136.34375 "/>
<path style="fill:none;stroke-width:0.3985;stroke-linecap:butt;stroke-linejoin:miter;stroke:rgb(0%,0%,0%);stroke-opacity:1;stroke-miterlimit:10;" d="M -0.000875 -63.778125 L -0.000875 61.7875 " transform="matrix(1.25,0,0,-1.25,6.97375,126.0625)"/>
<path style=" stroke:none;fill-rule:nonzero;fill:rgb(0%,0%,0%);fill-opacity:1;" d="M 6.972656 46.335938 L 4.980469 50.320312 L 6.972656 48.828125 L 8.964844 50.320312 "/>
<path style="fill:none;stroke-width:0.3985;stroke-linecap:butt;stroke-linejoin:miter;stroke:rgb(0%,0%,0%);stroke-opacity:1;stroke-miterlimit:10;" d="M 42.517875 63.778125 L 42.517875 95.66875 L 123.3085 95.66875 L 123.3085 63.778125 L 42.517875 63.778125 Z M 42.517875 63.778125 " transform="matrix(1.25,0,0,-1.25,6.97375,126.0625)"/>
<path style="fill:none;stroke-width:0.3985;stroke-linecap:butt;stroke-linejoin:miter;stroke:rgb(100%,0%,0%);stroke-opacity:1;stroke-miterlimit:10;" d="M 46.771 85.040625 L 68.030375 85.040625 " transform="matrix(1.25,0,0,-1.25,6.97375,126.0625)"/>
<path style=" stroke:none;fill-rule:nonzero;fill:rgb(100%,0%,0%);fill-opacity:1;" d="M 105.339844 22.84375 L 105.339844 22.453125 L 105.125 22.453125 C 104.382812 22.453125 104.207031 22.375 104.070312 21.964844 L 101.375 14.171875 C 101.316406 14.015625 101.277344 13.917969 101.082031 13.917969 C 100.886719 13.917969 100.847656 13.996094 100.789062 14.171875 L 98.210938 21.613281 C 97.976562 22.257812 97.488281 22.453125 96.804688 22.453125 L 96.804688 22.84375 L 98.074219 22.804688 L 99.519531 22.84375 L 99.519531 22.453125 C 98.894531 22.453125 98.582031 22.140625 98.582031 21.828125 C 98.582031 21.789062 98.601562 21.652344 98.601562 21.632812 L 99.1875 20.011719 L 102.253906 20.011719 L 102.917969 21.90625 C 102.9375 21.964844 102.957031 22.042969 102.957031 22.082031 C 102.957031 22.453125 102.253906 22.453125 101.921875 22.453125 L 101.921875 22.84375 C 102.371094 22.804688 103.25 22.804688 103.71875 22.804688 L 105.339844 22.84375 Z M 102.117188 19.621094 L 99.324219 19.621094 L 100.710938 15.558594 L 102.117188 19.621094 Z M 102.117188 19.621094 "/>
<path style=" stroke:none;fill-rule:nonzero;fill:rgb(100%,0%,0%);fill-opacity:1;" d="M 115.890625 22.84375 L 115.890625 22.453125 C 115.246094 22.453125 114.933594 22.453125 114.914062 22.082031 L 114.914062 19.699219 C 114.914062 18.625 114.914062 18.253906 114.523438 17.804688 C 114.347656 17.589844 113.9375 17.335938 113.214844 17.335938 C 112.179688 17.335938 111.613281 18.078125 111.417969 18.566406 C 111.242188 17.472656 110.324219 17.335938 109.757812 17.335938 C 108.839844 17.335938 108.253906 17.863281 107.902344 18.644531 L 107.902344 17.335938 L 106.144531 17.472656 L 106.144531 17.863281 C 107.023438 17.863281 107.121094 17.941406 107.121094 18.566406 L 107.121094 21.90625 C 107.121094 22.453125 106.984375 22.453125 106.144531 22.453125 L 106.144531 22.84375 L 107.570312 22.804688 L 108.957031 22.84375 L 108.957031 22.453125 C 108.117188 22.453125 107.980469 22.453125 107.980469 21.90625 L 107.980469 19.601562 C 107.980469 18.3125 108.878906 17.609375 109.660156 17.609375 C 110.460938 17.609375 110.597656 18.273438 110.597656 18.996094 L 110.597656 21.90625 C 110.597656 22.453125 110.460938 22.453125 109.621094 22.453125 L 109.621094 22.84375 L 111.027344 22.804688 L 112.414062 22.84375 L 112.414062 22.453125 C 111.59375 22.453125 111.457031 22.453125 111.457031 21.90625 L 111.457031 19.601562 C 111.457031 18.3125 112.335938 17.609375 113.136719 17.609375 C 113.917969 17.609375 114.054688 18.273438 114.054688 18.996094 L 114.054688 21.90625 C 114.054688 22.453125 113.917969 22.453125 113.078125 22.453125 L 113.078125 22.84375 L 114.484375 22.804688 L 115.890625 22.84375 Z M 115.890625 22.84375 "/>
<path style=" stroke:none;fill-rule:nonzero;fill:rgb(100%,0%,0%);fill-opacity:1;" d="M 122.613281 20.148438 C 122.613281 18.566406 121.421875 17.335938 120.015625 17.335938 C 119.039062 17.335938 118.511719 17.882812 118.277344 18.15625 L 118.277344 17.335938 L 116.480469 17.472656 L 116.480469 17.863281 C 117.359375 17.863281 117.457031 17.941406 117.457031 18.488281 L 117.457031 24.308594 C 117.457031 24.875 117.320312 24.875 116.480469 24.875 L 116.480469 25.265625 L 117.867188 25.226562 L 119.273438 25.265625 L 119.273438 24.875 C 118.453125 24.875 118.316406 24.875 118.316406 24.308594 L 118.316406 22.21875 L 118.316406 22.101562 C 118.375 22.316406 118.902344 22.980469 119.839844 22.980469 C 121.324219 22.980469 122.613281 21.75 122.613281 20.148438 Z M 121.578125 20.148438 C 121.578125 21.652344 120.71875 22.707031 119.800781 22.707031 C 119.292969 22.707031 118.824219 22.453125 118.492188 21.945312 C 118.316406 21.691406 118.316406 21.671875 118.316406 21.417969 L 118.316406 18.644531 C 118.667969 18 119.273438 17.648438 119.917969 17.648438 C 120.835938 17.648438 121.578125 18.742188 121.578125 20.148438 Z M 121.578125 20.148438 "/>
<path style=" stroke:none;fill-rule:nonzero;fill:rgb(100%,0%,0%);fill-opacity:1;" d="M 126.230469 22.84375 L 126.230469 22.453125 C 125.390625 22.453125 125.253906 22.453125 125.253906 21.90625 L 125.253906 14.191406 L 123.457031 14.328125 L 123.457031 14.71875 C 124.335938 14.71875 124.433594 14.796875 124.433594 15.421875 L 124.433594 21.90625 C 124.433594 22.453125 124.296875 22.453125 123.457031 22.453125 L 123.457031 22.84375 L 124.84375 22.804688 L 126.230469 22.84375 Z M 126.230469 22.84375 "/>
<path style=" stroke:none;fill-rule:nonzero;fill:rgb(100%,0%,0%);fill-opacity:1;" d="M 129.59375 22.84375 L 129.59375 22.453125 C 128.753906 22.453125 128.714844 22.394531 128.714844 21.90625 L 128.714844 17.335938 L 126.976562 17.472656 L 126.976562 17.863281 C 127.777344 17.863281 127.894531 17.941406 127.894531 18.546875 L 127.894531 21.90625 C 127.894531 22.453125 127.757812 22.453125 126.917969 22.453125 L 126.917969 22.84375 L 128.285156 22.804688 C 128.734375 22.804688 129.164062 22.824219 129.59375 22.84375 Z M 128.890625 15.324219 C 128.890625 14.972656 128.617188 14.660156 128.246094 14.660156 C 127.816406 14.660156 127.5625 15.011719 127.5625 15.324219 C 127.5625 15.65625 127.855469 15.96875 128.226562 15.96875 C 128.65625 15.96875 128.890625 15.636719 128.890625 15.324219 Z M 128.890625 15.324219 "/>
<path style=" stroke:none;fill-rule:nonzero;fill:rgb(100%,0%,0%);fill-opacity:1;" d="M 134.109375 21.300781 L 134.109375 20.597656 L 133.796875 20.597656 L 133.796875 21.28125 C 133.796875 22.199219 133.425781 22.667969 132.957031 22.667969 C 132.117188 22.667969 132.117188 21.535156 132.117188 21.320312 L 132.117188 17.863281 L 133.914062 17.863281 L 133.914062 17.472656 L 132.117188 17.472656 L 132.117188 15.1875 L 131.804688 15.1875 C 131.804688 16.203125 131.433594 17.53125 130.203125 17.589844 L 130.203125 17.863281 L 131.257812 17.863281 L 131.257812 21.300781 C 131.257812 22.824219 132.429688 22.980469 132.878906 22.980469 C 133.757812 22.980469 134.109375 22.101562 134.109375 21.300781 Z M 134.109375 21.300781 "/>
<path style=" stroke:none;fill-rule:nonzero;fill:rgb(100%,0%,0%);fill-opacity:1;" d="M 141.472656 22.84375 L 141.472656 22.453125 C 140.613281 22.453125 140.515625 22.375 140.515625 21.75 L 140.515625 17.335938 L 138.679688 17.472656 L 138.679688 17.863281 C 139.539062 17.863281 139.65625 17.941406 139.65625 18.566406 L 139.65625 20.773438 C 139.65625 21.867188 139.050781 22.707031 138.132812 22.707031 C 137.097656 22.707031 137.039062 22.121094 137.039062 21.476562 L 137.039062 17.335938 L 135.203125 17.472656 L 135.203125 17.863281 C 136.179688 17.863281 136.179688 17.902344 136.179688 18.996094 L 136.179688 20.871094 C 136.179688 21.847656 136.179688 22.980469 138.074219 22.980469 C 138.777344 22.980469 139.324219 22.628906 139.675781 21.867188 L 139.675781 22.980469 L 141.472656 22.84375 Z M 141.472656 22.84375 "/>
<path style=" stroke:none;fill-rule:nonzero;fill:rgb(100%,0%,0%);fill-opacity:1;" d="M 148.292969 22.84375 L 148.292969 22.453125 C 147.433594 22.453125 147.316406 22.375 147.316406 21.75 L 147.316406 14.191406 L 145.539062 14.328125 L 145.539062 14.71875 C 146.398438 14.71875 146.496094 14.796875 146.496094 15.421875 L 146.496094 18.117188 C 146.144531 17.667969 145.597656 17.335938 144.933594 17.335938 C 143.46875 17.335938 142.160156 18.566406 142.160156 20.167969 C 142.160156 21.75 143.371094 22.980469 144.796875 22.980469 C 145.597656 22.980469 146.144531 22.550781 146.457031 22.160156 L 146.457031 22.980469 L 148.292969 22.84375 Z M 146.457031 21.378906 C 146.457031 21.59375 146.457031 21.613281 146.320312 21.828125 C 145.949219 22.433594 145.402344 22.707031 144.855469 22.707031 C 144.289062 22.707031 143.839844 22.375 143.546875 21.90625 C 143.234375 21.398438 143.195312 20.695312 143.195312 20.167969 C 143.195312 19.71875 143.214844 18.976562 143.566406 18.410156 C 143.839844 18.019531 144.308594 17.609375 144.992188 17.609375 C 145.421875 17.609375 145.949219 17.804688 146.320312 18.351562 C 146.457031 18.566406 146.457031 18.585938 146.457031 18.820312 L 146.457031 21.378906 Z M 146.457031 21.378906 "/>
<path style=" stroke:none;fill-rule:nonzero;fill:rgb(100%,0%,0%);fill-opacity:1;" d="M 153.824219 21.359375 C 153.824219 21.242188 153.726562 21.203125 153.648438 21.203125 C 153.550781 21.203125 153.511719 21.28125 153.492188 21.378906 C 153.0625 22.667969 151.929688 22.667969 151.8125 22.667969 C 151.1875 22.667969 150.699219 22.296875 150.40625 21.828125 C 150.035156 21.242188 150.035156 20.421875 150.035156 19.972656 L 153.511719 19.972656 C 153.785156 19.972656 153.824219 19.972656 153.824219 19.699219 C 153.824219 18.46875 153.140625 17.257812 151.597656 17.257812 C 150.152344 17.257812 149 18.546875 149 20.109375 C 149 21.769531 150.308594 22.980469 151.734375 22.980469 C 153.257812 22.980469 153.824219 21.59375 153.824219 21.359375 Z M 153.003906 19.699219 L 150.035156 19.699219 C 150.113281 17.84375 151.167969 17.53125 151.597656 17.53125 C 152.867188 17.53125 153.003906 19.210938 153.003906 19.699219 Z M 153.003906 19.699219 "/>
<path style="fill:none;stroke-width:0.79701;stroke-linecap:butt;stroke-linejoin:miter;stroke:rgb(0%,0%,100%);stroke-opacity:1;stroke-dasharray:0.79701,1.99255;stroke-miterlimit:10;" d="M 46.771 72.284375 L 68.030375 72.284375 " transform="matrix(1.25,0,0,-1.25,6.97375,126.0625)"/>
<path style=" stroke:none;fill-rule:nonzero;fill:rgb(0%,0%,100%);fill-opacity:1;" d="M 105.761719 31.871094 L 105.761719 31.480469 C 105.371094 31.519531 104.863281 31.519531 104.550781 31.519531 L 103.125 31.480469 L 103.125 31.871094 C 103.769531 31.890625 104.042969 32.203125 104.042969 32.496094 C 104.042969 32.59375 104.003906 32.671875 103.984375 32.75 L 101.699219 38.746094 L 99.316406 32.457031 C 99.238281 32.28125 99.238281 32.242188 99.238281 32.242188 C 99.238281 31.871094 99.941406 31.871094 100.253906 31.871094 L 100.253906 31.480469 C 99.804688 31.519531 98.945312 31.519531 98.476562 31.519531 L 96.894531 31.480469 L 96.894531 31.871094 C 97.714844 31.871094 97.949219 31.871094 98.125 32.339844 L 101.015625 39.996094 C 101.09375 40.230469 101.152344 40.269531 101.328125 40.269531 C 101.523438 40.269531 101.5625 40.210938 101.621094 40.035156 L 104.394531 32.710938 C 104.570312 32.242188 104.902344 31.890625 105.761719 31.871094 Z M 105.761719 31.871094 "/>
<path style=" stroke:none;fill-rule:nonzero;fill:rgb(0%,0%,100%);fill-opacity:1;" d="M 109.085938 39.996094 L 109.085938 39.605469 C 108.246094 39.605469 108.207031 39.546875 108.207031 39.058594 L 108.207031 34.488281 L 106.46875 34.625 L 106.46875 35.015625 C 107.269531 35.015625 107.386719 35.09375 107.386719 35.699219 L 107.386719 39.058594 C 107.386719 39.605469 107.25 39.605469 106.410156 39.605469 L 106.410156 39.996094 L 107.777344 39.957031 C 108.226562 39.957031 108.65625 39.976562 109.085938 39.996094 Z M 108.382812 32.476562 C 108.382812 32.125 108.109375 31.8125 107.738281 31.8125 C 107.308594 31.8125 107.054688 32.164062 107.054688 32.476562 C 107.054688 32.808594 107.347656 33.121094 107.71875 33.121094 C 108.148438 33.121094 108.382812 32.789062 108.382812 32.476562 Z M 108.382812 32.476562 "/>
<path style=" stroke:none;fill-rule:nonzero;fill:rgb(0%,0%,100%);fill-opacity:1;" d="M 113.601562 38.453125 L 113.601562 37.75 L 113.289062 37.75 L 113.289062 38.433594 C 113.289062 39.351562 112.917969 39.820312 112.449219 39.820312 C 111.609375 39.820312 111.609375 38.6875 111.609375 38.472656 L 111.609375 35.015625 L 113.40625 35.015625 L 113.40625 34.625 L 111.609375 34.625 L 111.609375 32.339844 L 111.296875 32.339844 C 111.296875 33.355469 110.925781 34.683594 109.695312 34.742188 L 109.695312 35.015625 L 110.75 35.015625 L 110.75 38.453125 C 110.75 39.976562 111.921875 40.132812 112.371094 40.132812 C 113.25 40.132812 113.601562 39.253906 113.601562 38.453125 Z M 113.601562 38.453125 "/>
<path style=" stroke:none;fill-rule:nonzero;fill:rgb(0%,0%,100%);fill-opacity:1;" d="M 119.480469 38.511719 C 119.480469 38.394531 119.382812 38.355469 119.304688 38.355469 C 119.207031 38.355469 119.167969 38.433594 119.148438 38.53125 C 118.71875 39.820312 117.585938 39.820312 117.46875 39.820312 C 116.84375 39.820312 116.355469 39.449219 116.0625 38.980469 C 115.691406 38.394531 115.691406 37.574219 115.691406 37.125 L 119.167969 37.125 C 119.441406 37.125 119.480469 37.125 119.480469 36.851562 C 119.480469 35.621094 118.796875 34.410156 117.253906 34.410156 C 115.808594 34.410156 114.65625 35.699219 114.65625 37.261719 C 114.65625 38.921875 115.964844 40.132812 117.390625 40.132812 C 118.914062 40.132812 119.480469 38.746094 119.480469 38.511719 Z M 118.660156 36.851562 L 115.691406 36.851562 C 115.769531 34.996094 116.824219 34.683594 117.253906 34.683594 C 118.523438 34.683594 118.660156 36.363281 118.660156 36.851562 Z M 118.660156 36.851562 "/>
<path style=" stroke:none;fill-rule:nonzero;fill:rgb(0%,0%,100%);fill-opacity:1;" d="M 124.332031 38.394531 C 124.332031 37.75 123.960938 37.359375 123.804688 37.222656 C 123.394531 36.8125 122.90625 36.714844 122.378906 36.617188 C 121.675781 36.480469 120.855469 36.324219 120.855469 35.601562 C 120.855469 35.152344 121.167969 34.644531 122.242188 34.644531 C 123.609375 34.644531 123.6875 35.777344 123.707031 36.148438 C 123.707031 36.265625 123.84375 36.265625 123.84375 36.265625 C 124.019531 36.265625 124.019531 36.207031 124.019531 35.972656 L 124.019531 34.703125 C 124.019531 34.507812 124.019531 34.410156 123.882812 34.410156 C 123.824219 34.410156 123.785156 34.410156 123.628906 34.566406 C 123.589844 34.605469 123.472656 34.722656 123.414062 34.761719 C 122.945312 34.410156 122.4375 34.410156 122.242188 34.410156 C 120.71875 34.410156 120.25 35.25 120.25 35.953125 C 120.25 36.382812 120.445312 36.734375 120.777344 37.007812 C 121.1875 37.320312 121.539062 37.398438 122.4375 37.574219 C 122.710938 37.632812 123.726562 37.828125 123.726562 38.726562 C 123.726562 39.351562 123.296875 39.859375 122.320312 39.859375 C 121.265625 39.859375 120.816406 39.15625 120.582031 38.082031 C 120.542969 37.925781 120.542969 37.886719 120.40625 37.886719 C 120.25 37.886719 120.25 37.964844 120.25 38.179688 L 120.25 39.839844 C 120.25 40.054688 120.25 40.132812 120.386719 40.132812 C 120.445312 40.132812 120.464844 40.113281 120.699219 39.878906 C 120.71875 39.859375 120.71875 39.839844 120.953125 39.605469 C 121.5 40.113281 122.066406 40.132812 122.320312 40.132812 C 123.746094 40.132812 124.332031 39.292969 124.332031 38.394531 Z M 124.332031 38.394531 "/>
<path style=" stroke:none;fill-rule:nonzero;fill:rgb(0%,0%,100%);fill-opacity:1;" d="M 129.246094 38.394531 C 129.246094 37.75 128.875 37.359375 128.71875 37.222656 C 128.308594 36.8125 127.820312 36.714844 127.292969 36.617188 C 126.589844 36.480469 125.769531 36.324219 125.769531 35.601562 C 125.769531 35.152344 126.082031 34.644531 127.15625 34.644531 C 128.523438 34.644531 128.601562 35.777344 128.621094 36.148438 C 128.621094 36.265625 128.757812 36.265625 128.757812 36.265625 C 128.933594 36.265625 128.933594 36.207031 128.933594 35.972656 L 128.933594 34.703125 C 128.933594 34.507812 128.933594 34.410156 128.796875 34.410156 C 128.738281 34.410156 128.699219 34.410156 128.542969 34.566406 C 128.503906 34.605469 128.386719 34.722656 128.328125 34.761719 C 127.859375 34.410156 127.351562 34.410156 127.15625 34.410156 C 125.632812 34.410156 125.164062 35.25 125.164062 35.953125 C 125.164062 36.382812 125.359375 36.734375 125.691406 37.007812 C 126.101562 37.320312 126.453125 37.398438 127.351562 37.574219 C 127.625 37.632812 128.640625 37.828125 128.640625 38.726562 C 128.640625 39.351562 128.210938 39.859375 127.234375 39.859375 C 126.179688 39.859375 125.730469 39.15625 125.496094 38.082031 C 125.457031 37.925781 125.457031 37.886719 125.320312 37.886719 C 125.164062 37.886719 125.164062 37.964844 125.164062 38.179688 L 125.164062 39.839844 C 125.164062 40.054688 125.164062 40.132812 125.300781 40.132812 C 125.359375 40.132812 125.378906 40.113281 125.613281 39.878906 C 125.632812 39.859375 125.632812 39.839844 125.867188 39.605469 C 126.414062 40.113281 126.980469 40.132812 127.234375 40.132812 C 128.660156 40.132812 129.246094 39.292969 129.246094 38.394531 Z M 129.246094 38.394531 "/>
<path style=" stroke:none;fill-rule:nonzero;fill:rgb(0%,0%,100%);fill-opacity:1;" d="M 134.839844 38.511719 C 134.839844 38.394531 134.742188 38.355469 134.664062 38.355469 C 134.566406 38.355469 134.527344 38.433594 134.507812 38.53125 C 134.078125 39.820312 132.945312 39.820312 132.828125 39.820312 C 132.203125 39.820312 131.714844 39.449219 131.421875 38.980469 C 131.050781 38.394531 131.050781 37.574219 131.050781 37.125 L 134.527344 37.125 C 134.800781 37.125 134.839844 37.125 134.839844 36.851562 C 134.839844 35.621094 134.15625 34.410156 132.613281 34.410156 C 131.167969 34.410156 130.015625 35.699219 130.015625 37.261719 C 130.015625 38.921875 131.324219 40.132812 132.75 40.132812 C 134.273438 40.132812 134.839844 38.746094 134.839844 38.511719 Z M 134.019531 36.851562 L 131.050781 36.851562 C 131.128906 34.996094 132.183594 34.683594 132.613281 34.683594 C 133.882812 34.683594 134.019531 36.363281 134.019531 36.851562 Z M 134.019531 36.851562 "/>
<path style="fill:none;stroke-width:0.79701;stroke-linecap:butt;stroke-linejoin:miter;stroke:rgb(100%,0%,0%);stroke-opacity:1;stroke-miterlimit:10;" d="M -0.000875 53.15 C -0.000875 53.15 0.8085 53.040625 1.121 52.909375 C 1.4335 52.775 1.92725 52.459375 2.23975 52.19375 C 2.55225 51.93125 3.049125 51.4 3.361625 51.009375 C 3.671 50.615625 4.171 49.884375 4.4835 49.365625 C 4.792875 48.85 5.292875 47.91875 5.599125 47.278125 C 5.911625 46.64375 6.411625 45.521875 6.721 44.76875 C 7.0335 44.0125 7.5335 42.715625 7.842875 41.853125 C 8.155375 40.99375 8.65225 39.521875 8.96475 38.559375 C 9.27725 37.6 9.771 35.978125 10.0835 34.925 C 10.392875 33.871875 10.892875 32.10625 11.205375 30.971875 C 11.51475 29.8375 12.01475 27.95 12.32725 26.74375 C 12.636625 25.5375 13.136625 23.540625 13.442875 22.271875 C 13.755375 21.003125 14.255375 18.91875 14.56475 17.6 C 14.87725 16.284375 15.374125 14.128125 15.686625 12.771875 C 15.999125 11.415625 16.496 9.209375 16.8085 7.825 C 17.11475 6.44375 17.61475 4.20625 17.92725 2.809375 C 18.236625 1.415625 18.736625 -0.83125 19.049125 -2.228125 C 19.3585 -3.621875 19.8585 -5.8625 20.167875 -7.246875 C 20.480375 -8.63125 20.980375 -10.840625 21.286625 -12.2 C 21.599125 -13.559375 22.099125 -15.725 22.4085 -17.05 C 22.721 -18.36875 23.217875 -20.4625 23.530375 -21.740625 C 23.842875 -23.0125 24.33975 -25.021875 24.65225 -26.2375 C 24.9585 -27.45 25.4585 -29.353125 25.771 -30.49375 C 26.080375 -31.6375 26.580375 -33.41875 26.892875 -34.48125 C 27.20225 -35.54375 27.70225 -37.184375 28.011625 -38.159375 C 28.324125 -39.13125 28.824125 -40.61875 29.130375 -41.490625 C 29.442875 -42.365625 29.93975 -43.684375 30.25225 -44.45 C 30.56475 -45.215625 31.061625 -46.3625 31.374125 -47.009375 C 31.6835 -47.6625 32.1835 -48.615625 32.496 -49.146875 C 32.80225 -49.678125 33.30225 -50.434375 33.61475 -50.846875 C 33.924125 -51.253125 34.424125 -51.803125 34.7335 -52.08125 C 35.046 -52.35625 35.546 -52.70625 35.855375 -52.85 C 36.167875 -52.996875 36.667875 -53.13125 36.974125 -53.146875 C 37.286625 -53.159375 37.7835 -53.075 38.096 -52.959375 C 38.4085 -52.846875 38.905375 -52.55 39.217875 -52.303125 C 39.52725 -52.053125 40.02725 -51.55 40.33975 -51.16875 C 40.646 -50.79375 41.146 -50.084375 41.455375 -49.58125 C 41.767875 -49.075 42.267875 -48.16875 42.57725 -47.54375 C 42.88975 -46.91875 43.38975 -45.821875 43.699125 -45.08125 C 44.011625 -44.340625 44.505375 -43.059375 44.817875 -42.209375 C 45.130375 -41.3625 45.62725 -39.9125 45.93975 -38.9625 C 46.249125 -38.0125 46.749125 -36.409375 47.061625 -35.365625 C 47.371 -34.321875 47.871 -32.571875 48.1835 -31.446875 C 48.48975 -30.31875 48.98975 -28.446875 49.299125 -27.24375 C 49.611625 -26.04375 50.111625 -24.059375 50.421 -22.8 C 50.7335 -21.5375 51.2335 -19.4625 51.542875 -18.15 C 51.855375 -16.8375 52.349125 -14.690625 52.661625 -13.3375 C 52.974125 -11.98125 53.471 -9.784375 53.7835 -8.403125 C 54.092875 -7.025 54.592875 -4.7875 54.905375 -3.39375 C 55.21475 -2.003125 55.71475 0.246875 56.021 1.64375 C 56.3335 3.040625 56.8335 5.284375 57.142875 6.665625 C 57.455375 8.053125 57.955375 10.26875 58.26475 11.63125 C 58.57725 12.99375 59.074125 15.165625 59.386625 16.49375 C 59.699125 17.821875 60.192875 19.925 60.505375 21.20625 C 60.81475 22.4875 61.31475 24.50625 61.62725 25.725 C 61.936625 26.946875 62.436625 28.8625 62.749125 30.0125 C 63.0585 31.16875 63.5585 32.9625 63.86475 34.0375 C 64.17725 35.10625 64.67725 36.7625 64.986625 37.746875 C 65.299125 38.73125 65.796 40.2375 66.1085 41.121875 C 66.421 42.00625 66.917875 43.35 67.230375 44.128125 C 67.542875 44.903125 68.036625 46.06875 68.349125 46.73125 C 68.6585 47.4 69.1585 48.378125 69.471 48.925 C 69.780375 49.471875 70.280375 50.246875 70.58975 50.66875 C 70.90225 51.090625 71.40225 51.66875 71.7085 51.9625 C 72.021 52.25625 72.521 52.621875 72.830375 52.784375 C 73.142875 52.946875 73.63975 53.103125 73.95225 53.134375 C 74.26475 53.165625 74.761625 53.10625 75.074125 53.00625 C 75.380375 52.903125 75.880375 52.634375 76.192875 52.4 C 76.50225 52.16875 77.00225 51.690625 77.31475 51.325 C 77.624125 50.9625 78.124125 50.275 78.4335 49.7875 C 78.746 49.3 79.246 48.4125 79.55225 47.803125 C 79.86475 47.19375 80.361625 46.1125 80.674125 45.384375 C 80.986625 44.659375 81.4835 43.4 81.796 42.565625 C 82.1085 41.728125 82.605375 40.29375 82.917875 39.353125 C 83.224125 38.415625 83.724125 36.83125 84.036625 35.79375 C 84.346 34.7625 84.846 33.028125 85.155375 31.9125 C 85.467875 30.79375 85.967875 28.934375 86.27725 27.74375 C 86.58975 26.553125 87.08975 24.58125 87.396 23.325 C 87.7085 22.071875 88.205375 20.00625 88.517875 18.696875 C 88.830375 17.3875 89.32725 15.246875 89.63975 13.9 C 89.949125 12.553125 90.449125 10.353125 90.761625 8.978125 C 91.067875 7.6 91.567875 5.36875 91.880375 3.975 C 92.18975 2.584375 92.68975 0.334375 92.999125 -1.059375 C 93.311625 -2.459375 93.811625 -4.7 94.121 -6.0875 C 94.4335 -7.478125 94.92725 -9.696875 95.23975 -11.065625 C 95.55225 -12.428125 96.049125 -14.603125 96.361625 -15.940625 C 96.674125 -17.271875 97.171 -19.38125 97.4835 -20.66875 C 97.792875 -21.95625 98.292875 -23.9875 98.605375 -25.2125 C 98.911625 -26.44375 99.411625 -28.36875 99.721 -29.534375 C 100.0335 -30.69375 100.5335 -32.503125 100.842875 -33.584375 C 101.155375 -34.66875 101.655375 -36.340625 101.96475 -37.3375 C 102.27725 -38.33125 102.771 -39.853125 103.0835 -40.753125 C 103.396 -41.65 103.892875 -43.009375 104.205375 -43.8 C 104.51475 -44.590625 105.01475 -45.775 105.32725 -46.45625 C 105.636625 -47.134375 106.136625 -48.13125 106.449125 -48.69375 C 106.755375 -49.253125 107.255375 -50.05625 107.56475 -50.490625 C 107.87725 -50.928125 108.37725 -51.525 108.686625 -51.834375 C 108.999125 -52.14375 109.496 -52.5375 109.8085 -52.7125 C 110.121 -52.89375 110.61475 -53.071875 110.92725 -53.11875 C 111.23975 -53.165625 111.736625 -53.13125 112.049125 -53.04375 C 112.3585 -52.959375 112.8585 -52.715625 113.171 -52.496875 C 113.480375 -52.278125 113.980375 -51.821875 114.286625 -51.475 C 114.599125 -51.128125 115.099125 -50.4625 115.4085 -49.990625 C 115.721 -49.5125 116.221 -48.65 116.530375 -48.05625 C 116.842875 -47.459375 117.33975 -46.4 117.65225 -45.690625 C 117.96475 -44.975 118.4585 -43.73125 118.771 -42.909375 C 119.080375 -42.084375 119.580375 -40.675 119.892875 -39.746875 C 120.20225 -38.81875 120.70225 -37.246875 121.01475 -36.228125 C 121.324125 -35.20625 121.824125 -33.4875 122.130375 -32.38125 C 122.442875 -31.271875 122.942875 -29.425 123.25225 -28.240625 C 123.56475 -27.05625 124.061625 -25.1 124.374125 -23.85 C 124.686625 -22.6 125.1835 -20.54375 125.496 -19.24375 C 125.80225 -17.940625 126.30225 -15.80625 126.61475 -14.4625 C 126.924125 -13.11875 127.424125 -10.928125 127.736625 -9.553125 C 128.046 -8.178125 128.546 -5.95 128.855375 -4.55625 C 129.167875 -3.165625 129.667875 -0.91875 129.974125 0.478125 C 130.286625 1.871875 130.786625 4.11875 131.096 5.509375 C 131.4085 6.896875 131.905375 9.11875 132.217875 10.490625 C 132.530375 11.8625 133.02725 14.040625 133.33975 15.38125 C 133.646 16.715625 134.146 18.8375 134.4585 20.13125 C 134.767875 21.425 135.267875 23.4625 135.580375 24.696875 C 135.88975 25.934375 136.38975 27.878125 136.699125 29.04375 C 137.011625 30.215625 137.511625 32.0375 137.817875 33.13125 C 138.130375 34.221875 138.62725 35.915625 138.93975 36.91875 C 139.25225 37.925 139.749125 39.4625 140.061625 40.371875 C 140.371 41.284375 140.871 42.6625 141.1835 43.465625 C 141.48975 44.271875 141.98975 45.475 142.30225 46.165625 C 142.611625 46.85625 143.111625 47.88125 143.421 48.45625 C 143.7335 49.028125 144.2335 49.853125 144.542875 50.30625 C 144.855375 50.75625 145.355375 51.378125 145.661625 51.7 C 145.974125 52.025 146.471 52.44375 146.7835 52.6375 C 147.096 52.83125 147.592875 53.034375 147.905375 53.096875 C 148.21475 53.159375 148.71475 53.15 149.02725 53.08125 C 149.3335 53.009375 149.8335 52.7875 150.142875 52.584375 C 150.455375 52.38125 150.955375 51.946875 151.26475 51.615625 C 151.57725 51.284375 152.07725 50.646875 152.386625 50.184375 C 152.699125 49.725 153.192875 48.884375 153.505375 48.3 C 153.817875 47.715625 154.31475 46.68125 154.62725 45.98125 C 154.936625 45.284375 155.436625 44.059375 155.749125 43.253125 C 156.0585 42.440625 156.5585 41.05 156.871 40.13125 C 157.17725 39.215625 157.67725 37.6625 157.986625 36.65 C 158.299125 35.6375 158.799125 33.940625 159.1085 32.8375 C 159.421 31.740625 159.921 29.909375 160.230375 28.73125 C 160.542875 27.55625 161.036625 25.60625 161.349125 24.36875 C 161.661625 23.128125 162.1585 21.08125 162.471 19.784375 C 162.780375 18.490625 163.280375 16.3625 163.592875 15.021875 C 163.90225 13.68125 164.40225 11.496875 164.7085 10.128125 C 165.021 8.75625 165.521 6.528125 165.830375 5.1375 C 166.142875 3.746875 166.95225 0.103125 166.95225 0.103125 " transform="matrix(1.25,0,0,-1.25,6.97375,126.0625)"/>
<path style="fill:none;stroke-width:1.19553;stroke-linecap:butt;stroke-linejoin:miter;stroke:rgb(0%,0%,100%);stroke-opacity:1;stroke-dasharray:1.19553,1.99255;stroke-miterlimit:10;" d="M -0.000875 0 C -0.000875 0 0.8085 2.621875 1.121 3.621875 C 1.4335 4.621875 1.92725 6.228125 2.23975 7.215625 C 2.55225 8.20625 3.049125 9.778125 3.361625 10.74375 C 3.671 11.709375 4.171 13.240625 4.4835 14.175 C 4.792875 15.10625 5.292875 16.584375 5.599125 17.478125 C 5.911625 18.371875 6.411625 19.775 6.721 20.621875 C 7.0335 21.471875 7.5335 22.790625 7.842875 23.584375 C 8.155375 24.378125 8.65225 25.603125 8.96475 26.334375 C 9.27725 27.059375 9.771 28.184375 10.0835 28.846875 C 10.392875 29.50625 10.892875 30.509375 11.205375 31.096875 C 11.51475 31.68125 12.01475 32.565625 12.32725 33.06875 C 12.636625 33.575 13.136625 34.321875 13.442875 34.74375 C 13.755375 35.165625 14.255375 35.775 14.56475 36.10625 C 14.87725 36.440625 15.374125 36.903125 15.686625 37.146875 C 15.999125 37.3875 16.496 37.7 16.8085 37.85 C 17.11475 37.996875 17.61475 38.159375 17.92725 38.2125 C 18.236625 38.26875 18.736625 38.275 19.049125 38.23125 C 19.3585 38.190625 19.8585 38.04375 20.167875 37.909375 C 20.480375 37.771875 20.980375 37.475 21.286625 37.24375 C 21.599125 37.0125 22.099125 36.56875 22.4085 36.24375 C 22.721 35.91875 23.217875 35.33125 23.530375 34.91875 C 23.842875 34.50625 24.33975 33.775 24.65225 33.278125 C 24.9585 32.784375 25.4585 31.915625 25.771 31.340625 C 26.080375 30.7625 26.580375 29.771875 26.892875 29.11875 C 27.20225 28.465625 27.70225 27.35625 28.011625 26.634375 C 28.324125 25.9125 28.824125 24.696875 29.130375 23.9125 C 29.442875 23.128125 29.93975 21.81875 30.25225 20.975 C 30.56475 20.134375 31.061625 18.740625 31.374125 17.85 C 31.6835 16.959375 32.1835 15.49375 32.496 14.565625 C 32.80225 13.634375 33.30225 12.10625 33.61475 11.146875 C 33.924125 10.184375 34.424125 8.615625 34.7335 7.628125 C 35.046 6.64375 35.546 5.040625 35.855375 4.040625 C 36.167875 3.040625 36.667875 1.425 36.974125 0.41875 C 37.286625 -0.584375 37.7835 -2.20625 38.096 -3.20625 C 38.4085 -4.209375 38.905375 -5.815625 39.217875 -6.803125 C 39.52725 -7.79375 40.02725 -9.36875 40.33975 -10.3375 C 40.646 -11.30625 41.146 -12.846875 41.455375 -13.784375 C 41.767875 -14.721875 42.267875 -16.2 42.57725 -17.103125 C 42.88975 -18.003125 43.38975 -19.415625 43.699125 -20.271875 C 44.011625 -21.121875 44.505375 -22.45625 44.817875 -23.253125 C 45.130375 -24.053125 45.62725 -25.290625 45.93975 -26.025 C 46.249125 -26.7625 46.749125 -27.896875 47.061625 -28.565625 C 47.371 -29.2375 47.871 -30.25625 48.1835 -30.85 C 48.48975 -31.446875 48.98975 -32.340625 49.299125 -32.85625 C 49.611625 -33.371875 50.111625 -34.134375 50.421 -34.565625 C 50.7335 -34.996875 51.2335 -35.621875 51.542875 -35.965625 C 51.855375 -36.309375 52.349125 -36.790625 52.661625 -37.040625 C 52.974125 -37.29375 53.471 -37.628125 53.7835 -37.7875 C 54.092875 -37.94375 54.592875 -38.121875 54.905375 -38.190625 C 55.21475 -38.253125 55.71475 -38.278125 56.021 -38.246875 C 56.3335 -38.215625 56.8335 -38.090625 57.142875 -37.9625 C 57.455375 -37.8375 57.955375 -37.55625 58.26475 -37.3375 C 58.57725 -37.11875 59.074125 -36.690625 59.386625 -36.378125 C 59.699125 -36.065625 60.192875 -35.490625 60.505375 -35.0875 C 60.81475 -34.684375 61.31475 -33.971875 61.62725 -33.4875 C 61.936625 -32.996875 62.436625 -32.146875 62.749125 -31.58125 C 63.0585 -31.009375 63.5585 -30.034375 63.86475 -29.3875 C 64.17725 -28.746875 64.67725 -27.65 64.986625 -26.934375 C 65.299125 -26.221875 65.796 -25.01875 66.1085 -24.240625 C 66.421 -23.4625 66.917875 -22.1625 67.230375 -21.325 C 67.542875 -20.49375 68.036625 -19.10625 68.349125 -18.221875 C 68.6585 -17.3375 69.1585 -15.878125 69.471 -14.95 C 69.780375 -14.025 70.280375 -12.50625 70.58975 -11.55 C 70.90225 -10.5875 71.40225 -9.025 71.7085 -8.040625 C 72.021 -7.05625 72.521 -5.459375 72.830375 -4.459375 C 73.142875 -3.4625 73.63975 -1.846875 73.95225 -0.840625 C 74.26475 0.165625 74.761625 1.784375 75.074125 2.7875 C 75.380375 3.790625 75.880375 5.396875 76.192875 6.3875 C 76.50225 7.38125 77.00225 8.9625 77.31475 9.934375 C 77.624125 10.903125 78.124125 12.446875 78.4335 13.3875 C 78.746 14.33125 79.246 15.81875 79.55225 16.725 C 79.86475 17.63125 80.361625 19.053125 80.674125 19.9125 C 80.986625 20.771875 81.4835 22.1125 81.796 22.915625 C 82.1085 23.721875 82.605375 24.971875 82.917875 25.715625 C 83.224125 26.459375 83.724125 27.60625 84.036625 28.284375 C 84.346 28.9625 84.846 29.996875 85.155375 30.6 C 85.467875 31.20625 85.967875 32.1125 86.27725 32.6375 C 86.58975 33.1625 87.08975 33.94375 87.396 34.384375 C 87.7085 34.825 88.205375 35.465625 88.517875 35.81875 C 88.830375 36.175 89.32725 36.66875 89.63975 36.934375 C 89.949125 37.196875 90.449125 37.54375 90.761625 37.715625 C 91.067875 37.884375 91.567875 38.084375 91.880375 38.159375 C 92.18975 38.23125 92.68975 38.278125 92.999125 38.259375 C 93.311625 38.240625 93.811625 38.128125 94.121 38.0125 C 94.4335 37.896875 94.92725 37.6375 95.23975 37.428125 C 95.55225 37.221875 96.049125 36.80625 96.361625 36.50625 C 96.674125 36.2 97.171 35.646875 97.4835 35.25625 C 97.792875 34.8625 98.292875 34.1625 98.605375 33.684375 C 98.911625 33.209375 99.411625 32.371875 99.721 31.815625 C 100.0335 31.25625 100.5335 30.290625 100.842875 29.659375 C 101.155375 29.021875 101.655375 27.940625 101.96475 27.23125 C 102.27725 26.525 102.771 25.334375 103.0835 24.565625 C 103.396 23.790625 103.892875 22.503125 104.205375 21.675 C 104.51475 20.846875 105.01475 19.471875 105.32725 18.590625 C 105.636625 17.709375 106.136625 16.259375 106.449125 15.3375 C 106.755375 14.415625 107.255375 12.903125 107.56475 11.946875 C 107.87725 10.990625 108.37725 9.43125 108.686625 8.45 C 108.999125 7.471875 109.496 5.871875 109.8085 4.878125 C 110.121 3.878125 110.61475 2.2625 110.92725 1.259375 C 111.23975 0.25625 111.736625 -1.365625 112.049125 -2.36875 C 112.3585 -3.371875 112.8585 -4.98125 113.171 -5.975 C 113.480375 -6.965625 113.980375 -8.553125 114.286625 -9.528125 C 114.599125 -10.503125 115.099125 -12.05 115.4085 -12.996875 C 115.721 -13.94375 116.221 -15.440625 116.530375 -16.346875 C 116.842875 -17.25625 117.33975 -18.684375 117.65225 -19.553125 C 117.96475 -20.415625 118.4585 -21.76875 118.771 -22.58125 C 119.080375 -23.39375 119.580375 -24.65 119.892875 -25.403125 C 120.20225 -26.159375 120.70225 -27.315625 121.01475 -28.003125 C 121.324125 -28.684375 121.824125 -29.73125 122.130375 -30.346875 C 122.442875 -30.959375 122.942875 -31.884375 123.25225 -32.41875 C 123.56475 -32.95 124.061625 -33.746875 124.374125 -34.196875 C 124.686625 -34.65 125.1835 -35.30625 125.496 -35.66875 C 125.80225 -36.034375 126.30225 -36.55 126.61475 -36.821875 C 126.924125 -37.096875 127.424125 -37.4625 127.736625 -37.64375 C 128.046 -37.825 128.546 -38.040625 128.855375 -38.128125 C 129.167875 -38.2125 129.667875 -38.275 129.974125 -38.2625 C 130.286625 -38.25625 130.786625 -38.165625 131.096 -38.059375 C 131.4085 -37.95625 131.905375 -37.7125 132.217875 -37.5125 C 132.530375 -37.315625 133.02725 -36.91875 133.33975 -36.63125 C 133.646 -36.3375 134.146 -35.79375 134.4585 -35.415625 C 134.767875 -35.034375 135.267875 -34.35 135.580375 -33.884375 C 135.88975 -33.415625 136.38975 -32.596875 136.699125 -32.04375 C 137.011625 -31.496875 137.511625 -30.55 137.817875 -29.91875 C 138.130375 -29.29375 138.62725 -28.225 138.93975 -27.528125 C 139.25225 -26.83125 139.749125 -25.65 140.061625 -24.884375 C 140.371 -24.11875 140.871 -22.840625 141.1835 -22.021875 C 141.48975 -21.196875 141.98975 -19.83125 142.30225 -18.95625 C 142.611625 -18.084375 143.111625 -16.6375 143.421 -15.721875 C 143.7335 -14.80625 144.2335 -13.3 144.542875 -12.346875 C 144.855375 -11.396875 145.355375 -9.8375 145.661625 -8.8625 C 145.974125 -7.88125 146.471 -6.290625 146.7835 -5.29375 C 147.096 -4.3 147.592875 -2.684375 147.905375 -1.68125 C 148.21475 -0.675 148.71475 0.94375 149.02725 1.946875 C 149.3335 2.95 149.8335 4.565625 150.142875 5.559375 C 150.455375 6.553125 150.955375 8.14375 151.26475 9.11875 C 151.57725 10.096875 152.07725 11.65 152.386625 12.6 C 152.699125 13.55 153.192875 15.053125 153.505375 15.965625 C 153.817875 16.88125 154.31475 18.31875 154.62725 19.190625 C 154.936625 20.059375 155.436625 21.41875 155.749125 22.2375 C 156.0585 23.05625 156.5585 24.33125 156.871 25.0875 C 157.17725 25.85 157.67725 27.01875 157.986625 27.7125 C 158.299125 28.403125 158.799125 29.465625 159.1085 30.0875 C 159.421 30.709375 159.921 31.646875 160.230375 32.19375 C 160.542875 32.7375 161.036625 33.54375 161.349125 34.00625 C 161.661625 34.465625 162.1585 35.14375 162.471 35.5125 C 162.780375 35.8875 163.280375 36.41875 163.592875 36.70625 C 163.90225 36.990625 164.40225 37.371875 164.7085 37.565625 C 165.021 37.75625 165.521 37.990625 165.830375 38.0875 C 166.142875 38.184375 166.95225 38.26875 166.95225 38.26875 " transform="matrix(1.25,0,0,-1.25,6.97375,126.0625)"/>
<path style="fill:none;stroke-width:0.3985;stroke-linecap:butt;stroke-linejoin:miter;stroke:rgb(0%,0%,0%);stroke-opacity:1;stroke-dasharray:2.98883,2.98883;stroke-miterlimit:10;" d="M 18.7085 0 L 18.7085 37.20625 " transform="matrix(1.25,0,0,-1.25,6.97375,126.0625)"/>
<path style="fill:none;stroke-width:0.3985;stroke-linecap:butt;stroke-linejoin:miter;stroke:rgb(0%,0%,0%);stroke-opacity:1;stroke-dasharray:2.98883,2.98883;stroke-miterlimit:10;" d="M 93.121 0 L 93.121 37.20625 " transform="matrix(1.25,0,0,-1.25,6.97375,126.0625)"/>
</g>
</svg>
