<?xml version="1.0" encoding="UTF-8"?>
<!-- Converted by misc2svg (http://www.network-science.de/tools/misc2svg/) -->
<svg xmlns="http://www.w3.org/2000/svg" xmlns:xlink="http://www.w3.org/1999/xlink" width="412pt" height="226pt" viewBox="0 0 412 226" version="1.1">
<g id="misc2svg">
<path style="fill:none;stroke-width:0.19925;stroke-linecap:butt;stroke-linejoin:miter;stroke:rgb(90.196078%,90.196078%,90.196078%);stroke-opacity:1;stroke-miterlimit:10;" d="M -0.001125 -82.21125 L 222.636375 -82.21125 M -0.001125 -79.376875 L 222.636375 -79.376875 M -0.001125 -76.5425 L 222.636375 -76.5425 M -0.001125 -73.705 L 222.636375 -73.705 M -0.001125 -70.870625 L 222.636375 -70.870625 M -0.001125 -68.039375 L 222.636375 -68.039375 M -0.001125 -65.201875 L 222.636375 -65.201875 M -0.001125 -62.3675 L 222.636375 -62.3675 M -0.001125 -59.53 L 222.636375 -59.53 M -0.001125 -56.69875 L 222.636375 -56.69875 M -0.001125 -53.86125 L 222.636375 -53.86125 M -0.001125 -51.026875 L 222.636375 -51.026875 M -0.001125 -48.195625 L 222.636375 -48.195625 M -0.001125 -45.358125 L 222.636375 -45.358125 M -0.001125 -42.52375 L 222.636375 -42.52375 M -0.001125 -39.68625 L 222.636375 -39.68625 M -0.001125 -36.855 L 222.636375 -36.855 M -0.001125 -34.0175 L 222.636375 -34.0175 M -0.001125 -31.183125 L 222.636375 -31.183125 M -0.001125 -28.351875 L 222.636375 -28.351875 M -0.001125 -25.514375 L 222.636375 -25.514375 M -0.001125 -22.68 L 222.636375 -22.68 M -0.001125 -19.8425 L 222.636375 -19.8425 M -0.001125 -17.01125 L 222.636375 -17.01125 M -0.001125 -14.17375 L 222.636375 -14.17375 M -0.001125 -11.339375 L 222.636375 -11.339375 M -0.001125 -8.501875 L 222.636375 -8.501875 M -0.001125 -5.670625 L 222.636375 -5.670625 M -0.001125 -2.83625 L 222.636375 -2.83625 M -0.001125 0.00125 L 222.636375 0.00125 M -0.001125 2.8325 L 222.636375 2.8325 M -0.001125 5.67 L 222.636375 5.67 M -0.001125 8.504375 L 222.636375 8.504375 M -0.001125 11.341875 L 222.636375 11.341875 M -0.001125 14.173125 L 222.636375 14.173125 M -0.001125 17.0075 L 222.636375 17.0075 M -0.001125 19.845 L 222.636375 19.845 M -0.001125 22.67625 L 222.636375 22.67625 M -0.001125 25.51375 L 222.636375 25.51375 M -0.001125 28.348125 L 222.636375 28.348125 M -0.001125 31.185625 L 222.636375 31.185625 M -0.001125 34.016875 L 222.636375 34.016875 M -0.001125 36.85125 L 222.636375 36.85125 M -0.001125 39.68875 L 222.636375 39.68875 M -0.001125 42.523125 L 222.636375 42.523125 M -0.001125 45.3575 L 222.636375 45.3575 M -0.001125 48.191875 L 222.636375 48.191875 M -0.001125 51.029375 L 222.636375 51.029375 M -0.001125 53.860625 L 222.636375 53.860625 M -0.001125 56.695 L 222.636375 56.695 M -0.001125 59.5325 L 222.636375 59.5325 M -0.001125 62.366875 L 222.636375 62.366875 M -0.001125 65.20125 L 222.636375 65.20125 M -0.001125 68.035625 L 222.636375 68.035625 M -0.001125 70.873125 L 222.636375 70.873125 M -0.001125 73.704375 L 222.636375 73.704375 M -0.001125 76.53875 L 222.636375 76.53875 M -0.001125 79.37625 L 222.636375 79.37625 M -0.001125 82.210625 L 222.636375 82.210625 M -0.001125 85.035625 L 222.636375 85.035625 M -0.001125 -85.0425 L -0.001125 85.03875 M 2.83325 -85.0425 L 2.83325 85.03875 M 5.67075 -85.0425 L 5.67075 85.03875 M 8.505125 -85.0425 L 8.505125 85.03875 M 11.3395 -85.0425 L 11.3395 85.03875 M 14.173875 -85.0425 L 14.173875 85.03875 M 17.011375 -85.0425 L 17.011375 85.03875 M 19.84575 -85.0425 L 19.84575 85.03875 M 22.677 -85.0425 L 22.677 85.03875 M 25.5145 -85.0425 L 25.5145 85.03875 M 28.348875 -85.0425 L 28.348875 85.03875 M 31.18325 -85.0425 L 31.18325 85.03875 M 34.017625 -85.0425 L 34.017625 85.03875 M 36.855125 -85.0425 L 36.855125 85.03875 M 39.6895 -85.0425 L 39.6895 85.03875 M 42.52075 -85.0425 L 42.52075 85.03875 M 45.35825 -85.0425 L 45.35825 85.03875 M 48.192625 -85.0425 L 48.192625 85.03875 M 51.027 -85.0425 L 51.027 85.03875 M 53.861375 -85.0425 L 53.861375 85.03875 M 56.698875 -85.0425 L 56.698875 85.03875 M 59.53325 -85.0425 L 59.53325 85.03875 M 62.3645 -85.0425 L 62.3645 85.03875 M 65.202 -85.0425 L 65.202 85.03875 M 68.036375 -85.0425 L 68.036375 85.03875 M 70.873875 -85.0425 L 70.873875 85.03875 M 73.705125 -85.0425 L 73.705125 85.03875 M 76.542625 -85.0425 L 76.542625 85.03875 M 79.377 -85.0425 L 79.377 85.03875 M 82.20825 -85.0425 L 82.20825 85.03875 M 85.04575 -85.0425 L 85.04575 85.03875 M 87.880125 -85.0425 L 87.880125 85.03875 M 90.717625 -85.0425 L 90.717625 85.03875 M 93.548875 -85.0425 L 93.548875 85.03875 M 96.386375 -85.0425 L 96.386375 85.03875 M 99.22075 -85.0425 L 99.22075 85.03875 M 102.052 -85.0425 L 102.052 85.03875 M 104.8895 -85.0425 L 104.8895 85.03875 M 107.723875 -85.0425 L 107.723875 85.03875 M 110.561375 -85.0425 L 110.561375 85.03875 M 113.392625 -85.0425 L 113.392625 85.03875 M 116.230125 -85.0425 L 116.230125 85.03875 M 119.0645 -85.0425 L 119.0645 85.03875 M 121.902 -85.0425 L 121.902 85.03875 M 124.73325 -85.0425 L 124.73325 85.03875 M 127.567625 -85.0425 L 127.567625 85.03875 M 130.405125 -85.0425 L 130.405125 85.03875 M 133.236375 -85.0425 L 133.236375 85.03875 M 136.073875 -85.0425 L 136.073875 85.03875 M 138.90825 -85.0425 L 138.90825 85.03875 M 141.74575 -85.0425 L 141.74575 85.03875 M 144.577 -85.0425 L 144.577 85.03875 M 147.411375 -85.0425 L 147.411375 85.03875 M 150.248875 -85.0425 L 150.248875 85.03875 M 153.080125 -85.0425 L 153.080125 85.03875 M 155.917625 -85.0425 L 155.917625 85.03875 M 158.752 -85.0425 L 158.752 85.03875 M 161.5895 -85.0425 L 161.5895 85.03875 M 164.42075 -85.0425 L 164.42075 85.03875 M 167.255125 -85.0425 L 167.255125 85.03875 M 170.092625 -85.0425 L 170.092625 85.03875 M 172.927 -85.0425 L 172.927 85.03875 M 175.761375 -85.0425 L 175.761375 85.03875 M 178.59575 -85.0425 L 178.59575 85.03875 M 181.43325 -85.0425 L 181.43325 85.03875 M 184.2645 -85.0425 L 184.2645 85.03875 M 187.098875 -85.0425 L 187.098875 85.03875 M 189.936375 -85.0425 L 189.936375 85.03875 M 192.77075 -85.0425 L 192.77075 85.03875 M 195.605125 -85.0425 L 195.605125 85.03875 M 198.4395 -85.0425 L 198.4395 85.03875 M 201.277 -85.0425 L 201.277 85.03875 M 204.10825 -85.0425 L 204.10825 85.03875 M 206.942625 -85.0425 L 206.942625 85.03875 M 209.780125 -85.0425 L 209.780125 85.03875 M 212.6145 -85.0425 L 212.6145 85.03875 M 215.448875 -85.0425 L 215.448875 85.03875 M 218.28325 -85.0425 L 218.28325 85.03875 M 221.12075 -85.0425 L 221.12075 85.03875 " transform="matrix(1.25,0,0,-1.25,77.34125,112.775)"/>
<path style="fill:none;stroke-width:0.19925;stroke-linecap:butt;stroke-linejoin:miter;stroke:rgb(80%,80%,80%);stroke-opacity:1;stroke-miterlimit:10;" d="M -0.001125 -85.0425 L 222.636375 -85.0425 M -0.001125 -70.8675 L 222.636375 -70.8675 M -0.001125 -56.695625 L 222.636375 -56.695625 M -0.001125 -42.5175 L 222.636375 -42.5175 M -0.001125 -28.345625 L 222.636375 -28.345625 M -0.001125 -14.17375 L 222.636375 -14.17375 M -0.001125 0.00125 L 222.636375 0.00125 M -0.001125 14.173125 L 222.636375 14.173125 M -0.001125 28.345 L 222.636375 28.345 M -0.001125 42.52 L 222.636375 42.52 M -0.001125 56.691875 L 222.636375 56.691875 M -0.001125 70.866875 L 222.636375 70.866875 M -0.001125 85.03875 L 222.636375 85.03875 M -0.001125 -85.0425 L -0.001125 85.03875 M 14.173875 -85.0425 L 14.173875 85.03875 M 28.34575 -85.0425 L 28.34575 85.03875 M 42.52075 -85.0425 L 42.52075 85.03875 M 56.692625 -85.0425 L 56.692625 85.03875 M 70.8645 -85.0425 L 70.8645 85.03875 M 85.042625 -85.0425 L 85.042625 85.03875 M 99.2145 -85.0425 L 99.2145 85.03875 M 113.3895 -85.0425 L 113.3895 85.03875 M 127.561375 -85.0425 L 127.561375 85.03875 M 141.73325 -85.0425 L 141.73325 85.03875 M 155.90825 -85.0425 L 155.90825 85.03875 M 170.080125 -85.0425 L 170.080125 85.03875 M 184.255125 -85.0425 L 184.255125 85.03875 M 198.427 -85.0425 L 198.427 85.03875 M 212.598875 -85.0425 L 212.598875 85.03875 " transform="matrix(1.25,0,0,-1.25,77.34125,112.775)"/>
<path style="fill:none;stroke-width:0.19925;stroke-linecap:butt;stroke-linejoin:miter;stroke:rgb(60%,60%,60%);stroke-opacity:1;stroke-miterlimit:10;" d="M -0.001125 -85.0425 L 222.636375 -85.0425 M -0.001125 -56.695625 L 222.636375 -56.695625 M -0.001125 -28.345625 L 222.636375 -28.345625 M -0.001125 0.00125 L 222.636375 0.00125 M -0.001125 28.345 L 222.636375 28.345 M -0.001125 56.691875 L 222.636375 56.691875 M -0.001125 85.029375 L 222.636375 85.029375 M -0.001125 -85.0425 L -0.001125 85.03875 M 28.34575 -85.0425 L 28.34575 85.03875 M 56.692625 -85.0425 L 56.692625 85.03875 M 85.042625 -85.0425 L 85.042625 85.03875 M 113.3895 -85.0425 L 113.3895 85.03875 M 141.73325 -85.0425 L 141.73325 85.03875 M 170.080125 -85.0425 L 170.080125 85.03875 M 198.427 -85.0425 L 198.427 85.03875 " transform="matrix(1.25,0,0,-1.25,77.34125,112.775)"/>
<path style="fill:none;stroke-width:0.3985;stroke-linecap:butt;stroke-linejoin:miter;stroke:rgb(0%,0%,0%);stroke-opacity:1;stroke-miterlimit:10;" d="M -0.001125 0.00125 L 229.548875 0.00125 " transform="matrix(1.25,0,0,-1.25,77.34125,112.775)"/>
<path style=" stroke:none;fill-rule:nonzero;fill:rgb(0%,0%,0%);fill-opacity:1;" d="M 366.765625 112.773438 L 362.78125 110.78125 L 364.277344 112.773438 L 362.78125 114.765625 "/>
<path style=" stroke:none;fill-rule:nonzero;fill:rgb(0%,0%,0%);fill-opacity:1;" d="M 373.722656 121.535156 L 374.894531 121.535156 C 375.148438 121.535156 375.285156 121.535156 375.285156 121.28125 C 375.285156 121.144531 375.148438 121.144531 374.933594 121.144531 L 373.839844 121.144531 C 374.289062 119.367188 374.347656 119.132812 374.347656 119.054688 C 374.347656 118.839844 374.191406 118.722656 373.976562 118.722656 C 373.9375 118.722656 373.585938 118.722656 373.488281 119.171875 L 373 121.144531 L 371.828125 121.144531 C 371.574219 121.144531 371.457031 121.144531 371.457031 121.378906 C 371.457031 121.535156 371.554688 121.535156 371.808594 121.535156 L 372.902344 121.535156 C 372.003906 125.070312 371.945312 125.285156 371.945312 125.5 C 371.945312 126.183594 372.414062 126.652344 373.097656 126.652344 C 374.367188 126.652344 375.070312 124.835938 375.070312 124.738281 C 375.070312 124.601562 374.972656 124.601562 374.933594 124.601562 C 374.816406 124.601562 374.796875 124.640625 374.738281 124.777344 C 374.210938 126.085938 373.546875 126.378906 373.117188 126.378906 C 372.863281 126.378906 372.726562 126.222656 372.726562 125.8125 C 372.726562 125.5 372.765625 125.421875 372.804688 125.207031 L 373.722656 121.535156 Z M 373.722656 121.535156 "/>
<path style=" stroke:none;fill-rule:nonzero;fill:rgb(0%,0%,0%);fill-opacity:1;" d="M 379.78125 129.503906 C 379.78125 129.464844 379.78125 129.445312 379.566406 129.230469 C 378.023438 127.667969 377.613281 125.304688 377.613281 123.390625 C 377.613281 121.222656 378.082031 119.054688 379.625 117.511719 C 379.78125 117.355469 379.78125 117.335938 379.78125 117.296875 C 379.78125 117.199219 379.742188 117.160156 379.664062 117.160156 C 379.527344 117.160156 378.414062 118.019531 377.671875 119.601562 C 377.046875 120.96875 376.890625 122.355469 376.890625 123.390625 C 376.890625 124.367188 377.027344 125.871094 377.710938 127.296875 C 378.472656 128.820312 379.527344 129.640625 379.664062 129.640625 C 379.742188 129.640625 379.78125 129.601562 379.78125 129.503906 Z M 379.78125 129.503906 "/>
<path style=" stroke:none;fill-rule:nonzero;fill:rgb(0%,0%,0%);fill-opacity:1;" d="M 381.597656 125.773438 C 381.558594 125.96875 381.480469 126.261719 381.480469 126.320312 C 381.480469 126.535156 381.65625 126.652344 381.851562 126.652344 C 382.007812 126.652344 382.222656 126.554688 382.320312 126.300781 C 382.320312 126.28125 382.476562 125.695312 382.554688 125.382812 L 382.828125 124.269531 C 382.886719 123.976562 382.964844 123.703125 383.042969 123.429688 C 383.082031 123.214844 383.179688 122.84375 383.199219 122.804688 C 383.375 122.414062 384.039062 121.28125 385.230469 121.28125 C 385.796875 121.28125 385.894531 121.75 385.894531 122.160156 C 385.894531 122.472656 385.816406 122.824219 385.71875 123.195312 L 385.367188 124.640625 L 385.113281 125.578125 C 385.074219 125.832031 384.957031 126.261719 384.957031 126.320312 C 384.957031 126.535156 385.132812 126.652344 385.308594 126.652344 C 385.699219 126.652344 385.777344 126.339844 385.875 125.949219 C 386.050781 125.246094 386.519531 123.429688 386.617188 122.941406 C 386.65625 122.785156 387.320312 121.28125 388.6875 121.28125 C 389.214844 121.28125 389.351562 121.710938 389.351562 122.160156 C 389.351562 122.863281 388.824219 124.289062 388.570312 124.953125 C 388.472656 125.246094 388.414062 125.382812 388.414062 125.636719 C 388.414062 126.222656 388.84375 126.652344 389.429688 126.652344 C 390.601562 126.652344 391.070312 124.835938 391.070312 124.738281 C 391.070312 124.601562 390.953125 124.601562 390.914062 124.601562 C 390.796875 124.601562 390.796875 124.640625 390.738281 124.835938 C 390.542969 125.5 390.152344 126.378906 389.46875 126.378906 C 389.253906 126.378906 389.15625 126.261719 389.15625 125.96875 C 389.15625 125.65625 389.273438 125.363281 389.390625 125.089844 C 389.625 124.425781 390.152344 123.058594 390.152344 122.335938 C 390.152344 121.535156 389.644531 121.007812 388.707031 121.007812 C 387.789062 121.007812 387.144531 121.554688 386.675781 122.21875 C 386.675781 122.0625 386.636719 121.632812 386.285156 121.339844 C 385.972656 121.066406 385.582031 121.007812 385.269531 121.007812 C 384.136719 121.007812 383.53125 121.808594 383.316406 122.101562 C 383.257812 121.378906 382.730469 121.007812 382.164062 121.007812 C 381.597656 121.007812 381.363281 121.496094 381.246094 121.710938 C 381.03125 122.160156 380.875 122.882812 380.875 122.921875 C 380.875 123.058594 380.992188 123.058594 381.011719 123.058594 C 381.148438 123.058594 381.148438 123.039062 381.226562 122.765625 C 381.441406 121.886719 381.695312 121.28125 382.144531 121.28125 C 382.339844 121.28125 382.515625 121.378906 382.515625 121.847656 C 382.515625 122.121094 382.476562 122.257812 382.320312 122.902344 L 381.597656 125.773438 Z M 381.597656 125.773438 "/>
<path style=" stroke:none;fill-rule:nonzero;fill:rgb(0%,0%,0%);fill-opacity:1;" d="M 396.300781 121.847656 C 395.96875 121.867188 395.714844 122.140625 395.714844 122.414062 C 395.714844 122.589844 395.832031 122.785156 396.105469 122.785156 C 396.378906 122.785156 396.671875 122.570312 396.671875 122.082031 C 396.671875 121.515625 396.144531 121.007812 395.1875 121.007812 C 393.546875 121.007812 393.078125 122.277344 393.078125 122.824219 C 393.078125 123.800781 393.996094 123.976562 394.367188 124.054688 C 395.011719 124.191406 395.65625 124.328125 395.65625 125.011719 C 395.65625 125.324219 395.382812 126.378906 393.878906 126.378906 C 393.703125 126.378906 392.746094 126.378906 392.453125 125.714844 C 392.941406 125.773438 393.253906 125.402344 393.253906 125.050781 C 393.253906 124.777344 393.039062 124.621094 392.785156 124.621094 C 392.453125 124.621094 392.082031 124.875 392.082031 125.441406 C 392.082031 126.144531 392.804688 126.652344 393.859375 126.652344 C 395.890625 126.652344 396.378906 125.148438 396.378906 124.582031 C 396.378906 124.132812 396.144531 123.820312 395.988281 123.683594 C 395.65625 123.332031 395.285156 123.253906 394.738281 123.15625 C 394.289062 123.058594 393.800781 122.960938 393.800781 122.394531 C 393.800781 122.042969 394.09375 121.28125 395.1875 121.28125 C 395.5 121.28125 396.125 121.378906 396.300781 121.847656 Z M 396.300781 121.847656 "/>
<path style=" stroke:none;fill-rule:nonzero;fill:rgb(0%,0%,0%);fill-opacity:1;" d="M 400.867188 123.390625 C 400.867188 122.433594 400.730469 120.929688 400.046875 119.503906 C 399.304688 117.980469 398.230469 117.160156 398.113281 117.160156 C 398.035156 117.160156 397.976562 117.21875 397.976562 117.296875 C 397.976562 117.335938 397.976562 117.355469 398.210938 117.589844 C 399.441406 118.820312 400.144531 120.792969 400.144531 123.390625 C 400.144531 125.539062 399.695312 127.726562 398.152344 129.289062 C 397.976562 129.445312 397.976562 129.464844 397.976562 129.503906 C 397.976562 129.582031 398.035156 129.640625 398.113281 129.640625 C 398.230469 129.640625 399.363281 128.78125 400.085938 127.199219 C 400.730469 125.832031 400.867188 124.445312 400.867188 123.390625 Z M 400.867188 123.390625 "/>
<path style="fill:none;stroke-width:0.3985;stroke-linecap:butt;stroke-linejoin:miter;stroke:rgb(0%,0%,0%);stroke-opacity:1;stroke-miterlimit:10;" d="M -0.001125 -85.0425 L -0.001125 83.048125 " transform="matrix(1.25,0,0,-1.25,77.34125,112.775)"/>
<path style=" stroke:none;fill-rule:nonzero;fill:rgb(0%,0%,0%);fill-opacity:1;" d="M 77.339844 6.476562 L 75.347656 10.460938 L 77.339844 8.964844 L 79.335938 10.460938 "/>
<path style="fill:none;stroke-width:0.3985;stroke-linecap:butt;stroke-linejoin:miter;stroke:rgb(0%,0%,0%);stroke-opacity:1;stroke-miterlimit:10;" d="M 28.34575 2.8325 L 28.34575 -2.83625 " transform="matrix(1.25,0,0,-1.25,77.34125,112.775)"/>
<path style=" stroke:none;fill-rule:nonzero;fill:rgb(0%,0%,0%);fill-opacity:1;" d="M 121.667969 123.5625 C 121.667969 122.605469 121.550781 121.902344 121.160156 121.296875 C 120.886719 120.90625 120.339844 120.554688 119.65625 120.554688 C 117.625 120.554688 117.625 122.9375 117.625 123.5625 C 117.625 124.1875 117.625 126.511719 119.65625 126.511719 C 121.667969 126.511719 121.667969 124.1875 121.667969 123.5625 Z M 119.65625 126.257812 C 119.246094 126.257812 118.71875 126.023438 118.542969 125.320312 C 118.425781 124.8125 118.425781 124.089844 118.425781 123.445312 C 118.425781 122.800781 118.425781 122.136719 118.542969 121.667969 C 118.738281 120.984375 119.285156 120.789062 119.65625 120.789062 C 120.125 120.789062 120.574219 121.082031 120.730469 121.589844 C 120.867188 122.058594 120.886719 122.683594 120.886719 123.445312 C 120.886719 124.089844 120.886719 124.734375 120.769531 125.28125 C 120.59375 126.082031 120.007812 126.257812 119.65625 126.257812 Z M 119.65625 126.257812 "/>
<path style=" stroke:none;fill-rule:nonzero;fill:rgb(0%,0%,0%);fill-opacity:1;" d="M 124.113281 125.847656 C 124.113281 125.535156 123.859375 125.339844 123.625 125.339844 C 123.332031 125.339844 123.117188 125.574219 123.117188 125.828125 C 123.117188 126.140625 123.371094 126.335938 123.605469 126.335938 C 123.898438 126.335938 124.113281 126.101562 124.113281 125.847656 Z M 124.113281 125.847656 "/>
<path style=" stroke:none;fill-rule:nonzero;fill:rgb(0%,0%,0%);fill-opacity:1;" d="M 129.492188 124.753906 L 129.199219 124.753906 C 129.179688 124.949219 129.082031 125.457031 128.964844 125.535156 C 128.90625 125.59375 128.242188 125.59375 128.105469 125.59375 L 126.503906 125.59375 C 127.421875 124.792969 127.734375 124.539062 128.242188 124.128906 C 128.886719 123.621094 129.492188 123.074219 129.492188 122.253906 C 129.492188 121.199219 128.574219 120.554688 127.460938 120.554688 C 126.386719 120.554688 125.644531 121.316406 125.644531 122.117188 C 125.644531 122.546875 126.015625 122.605469 126.113281 122.605469 C 126.308594 122.605469 126.5625 122.449219 126.5625 122.136719 C 126.5625 121.980469 126.503906 121.667969 126.054688 121.667969 C 126.328125 121.0625 126.914062 120.867188 127.324219 120.867188 C 128.203125 120.867188 128.652344 121.550781 128.652344 122.253906 C 128.652344 123.015625 128.105469 123.601562 127.832031 123.914062 L 125.742188 126.003906 C 125.644531 126.082031 125.644531 126.101562 125.644531 126.335938 L 129.238281 126.335938 L 129.492188 124.753906 Z M 129.492188 124.753906 "/>
<path style="fill:none;stroke-width:0.3985;stroke-linecap:butt;stroke-linejoin:miter;stroke:rgb(0%,0%,0%);stroke-opacity:1;stroke-miterlimit:10;" d="M 2.83325 28.345 L -2.832375 28.345 " transform="matrix(1.25,0,0,-1.25,77.34125,112.775)"/>
<path style=" stroke:none;fill-rule:nonzero;fill:rgb(0%,0%,0%);fill-opacity:1;" d="M 60.804688 78.738281 L 60.511719 78.738281 C 60.492188 78.933594 60.394531 79.441406 60.277344 79.519531 C 60.21875 79.578125 59.554688 79.578125 59.417969 79.578125 L 57.816406 79.578125 C 58.734375 78.777344 59.046875 78.523438 59.554688 78.113281 C 60.199219 77.605469 60.804688 77.058594 60.804688 76.238281 C 60.804688 75.183594 59.886719 74.539062 58.773438 74.539062 C 57.699219 74.539062 56.957031 75.300781 56.957031 76.101562 C 56.957031 76.53125 57.328125 76.589844 57.425781 76.589844 C 57.621094 76.589844 57.875 76.433594 57.875 76.121094 C 57.875 75.964844 57.816406 75.652344 57.367188 75.652344 C 57.640625 75.046875 58.226562 74.851562 58.636719 74.851562 C 59.515625 74.851562 59.964844 75.535156 59.964844 76.238281 C 59.964844 77 59.417969 77.585938 59.144531 77.898438 L 57.054688 79.988281 C 56.957031 80.066406 56.957031 80.085938 56.957031 80.320312 L 60.550781 80.320312 L 60.804688 78.738281 Z M 60.804688 78.738281 "/>
<path style=" stroke:none;fill-rule:nonzero;fill:rgb(0%,0%,0%);fill-opacity:1;" d="M 67.601562 75.398438 C 67.914062 74.929688 68.207031 74.714844 68.675781 74.675781 C 68.773438 74.675781 68.871094 74.675781 68.871094 74.5 C 68.871094 74.460938 68.851562 74.363281 68.753906 74.363281 C 68.539062 74.363281 68.265625 74.402344 68.050781 74.402344 C 67.777344 74.402344 67.40625 74.363281 67.152344 74.363281 C 67.074219 74.363281 66.976562 74.402344 66.976562 74.558594 C 66.976562 74.675781 67.09375 74.675781 67.132812 74.675781 C 67.40625 74.695312 67.484375 74.8125 67.484375 74.929688 C 67.484375 75.066406 67.425781 75.144531 67.328125 75.28125 L 64.476562 79.5 L 63.675781 75.046875 C 63.65625 74.96875 63.65625 74.949219 63.65625 74.910156 C 63.65625 74.675781 64.144531 74.675781 64.203125 74.675781 C 64.359375 74.675781 64.476562 74.675781 64.476562 74.5 C 64.476562 74.480469 64.457031 74.363281 64.320312 74.363281 C 64.066406 74.363281 63.460938 74.402344 63.207031 74.402344 C 62.992188 74.402344 62.445312 74.363281 62.230469 74.363281 C 62.152344 74.363281 62.054688 74.402344 62.054688 74.558594 C 62.054688 74.675781 62.171875 74.675781 62.269531 74.675781 C 62.757812 74.675781 62.777344 74.734375 62.816406 74.96875 L 63.773438 80.261719 C 63.792969 80.4375 63.8125 80.496094 63.96875 80.496094 C 64.144531 80.496094 64.183594 80.4375 64.28125 80.300781 L 67.601562 75.398438 Z M 67.601562 75.398438 "/>
<path style="fill:none;stroke-width:0.3985;stroke-linecap:butt;stroke-linejoin:miter;stroke:rgb(0%,0%,0%);stroke-opacity:1;stroke-miterlimit:10;" d="M -56.69175 85.03875 L -11.338625 85.03875 L -11.338625 53.860625 L -56.69175 53.860625 L -56.69175 85.03875 " transform="matrix(1.25,0,0,-1.25,77.34125,112.775)"/>
<path style="fill:none;stroke-width:0.3985;stroke-linecap:butt;stroke-linejoin:miter;stroke:rgb(100%,0%,0%);stroke-opacity:1;stroke-miterlimit:10;" d="M -51.026125 76.535625 L -34.01675 76.535625 " transform="matrix(1.25,0,0,-1.25,77.34125,112.775)"/>
<path style=" stroke:none;fill-rule:nonzero;fill:rgb(100%,0%,0%);fill-opacity:1;" d="M 47.054688 13.335938 C 47.660156 12.359375 48.1875 12.320312 48.636719 12.300781 C 48.792969 12.28125 48.8125 12.085938 48.8125 12.066406 C 48.8125 11.96875 48.734375 11.910156 48.636719 11.910156 C 48.324219 11.910156 47.953125 11.949219 47.621094 11.949219 C 47.210938 11.949219 46.78125 11.910156 46.390625 11.910156 C 46.3125 11.910156 46.15625 11.910156 46.15625 12.144531 C 46.15625 12.28125 46.253906 12.300781 46.351562 12.300781 C 46.683594 12.320312 46.917969 12.457031 46.917969 12.710938 C 46.917969 12.90625 46.742188 13.179688 46.742188 13.179688 L 42.914062 19.273438 L 42.054688 12.671875 C 42.054688 12.457031 42.347656 12.300781 42.914062 12.300781 C 43.089844 12.300781 43.226562 12.300781 43.226562 12.046875 C 43.226562 11.949219 43.128906 11.910156 43.070312 11.910156 C 42.5625 11.910156 42.035156 11.949219 41.507812 11.949219 C 41.292969 11.949219 41.058594 11.949219 40.824219 11.949219 C 40.609375 11.949219 40.375 11.910156 40.160156 11.910156 C 40.0625 11.910156 39.925781 11.910156 39.925781 12.144531 C 39.925781 12.300781 40.023438 12.300781 40.238281 12.300781 C 40.921875 12.300781 40.941406 12.417969 40.980469 12.730469 L 41.957031 20.40625 C 41.996094 20.660156 42.054688 20.699219 42.210938 20.699219 C 42.40625 20.699219 42.464844 20.640625 42.5625 20.484375 L 47.054688 13.335938 Z M 47.054688 13.335938 "/>
<path style=" stroke:none;fill-rule:nonzero;fill:rgb(100%,0%,0%);fill-opacity:1;" d="M 53.378906 20.285156 C 53.4375 20.167969 53.4375 20.128906 53.4375 20.128906 C 53.4375 20.070312 53.398438 20.011719 53.28125 20.011719 C 53.261719 20.011719 53.222656 20.011719 53.183594 20.03125 C 53.183594 20.050781 53.164062 20.070312 53.066406 20.285156 C 52.5 21.554688 52.050781 21.984375 50.625 21.984375 L 49.140625 21.984375 C 48.886719 21.984375 48.867188 21.964844 48.867188 21.886719 C 48.867188 21.886719 48.867188 21.847656 48.90625 21.710938 L 49.492188 19.386719 L 50.46875 19.386719 C 51.152344 19.386719 51.25 19.484375 51.25 19.777344 C 51.25 19.875 51.230469 20.03125 51.191406 20.167969 C 51.171875 20.246094 51.171875 20.265625 51.171875 20.285156 C 51.171875 20.285156 51.171875 20.402344 51.328125 20.402344 C 51.445312 20.402344 51.445312 20.363281 51.484375 20.207031 L 51.972656 18.292969 C 51.992188 18.195312 51.992188 18.175781 51.992188 18.175781 C 51.992188 18.078125 51.914062 18.039062 51.835938 18.039062 C 51.71875 18.039062 51.71875 18.097656 51.660156 18.273438 C 51.484375 18.957031 51.230469 19.074219 50.488281 19.074219 L 49.570312 19.074219 L 50.097656 16.984375 C 50.15625 16.730469 50.175781 16.691406 50.527344 16.691406 L 51.953125 16.691406 C 53.105469 16.691406 53.378906 16.925781 53.378906 17.707031 C 53.378906 17.941406 53.339844 18.195312 53.339844 18.234375 C 53.339844 18.3125 53.378906 18.390625 53.496094 18.390625 C 53.632812 18.390625 53.632812 18.3125 53.652344 18.15625 L 53.808594 16.652344 C 53.828125 16.378906 53.769531 16.378906 53.554688 16.378906 L 48.769531 16.378906 C 48.59375 16.378906 48.496094 16.378906 48.496094 16.574219 C 48.496094 16.691406 48.574219 16.691406 48.769531 16.691406 C 48.90625 16.691406 48.945312 16.691406 49.101562 16.710938 C 49.277344 16.730469 49.296875 16.75 49.296875 16.828125 C 49.296875 16.886719 49.277344 16.984375 49.257812 17.023438 L 48.125 21.574219 C 48.027344 21.925781 48.027344 21.984375 47.34375 21.984375 C 47.1875 21.984375 47.089844 21.984375 47.089844 22.179688 C 47.089844 22.296875 47.1875 22.296875 47.34375 22.296875 L 52.265625 22.296875 C 52.480469 22.296875 52.5 22.296875 52.558594 22.140625 L 53.378906 20.285156 Z M 53.378906 20.285156 "/>
<path style="fill:none;stroke-width:0.3985;stroke-linecap:butt;stroke-linejoin:miter;stroke:rgb(0%,0%,100%);stroke-opacity:1;stroke-miterlimit:10;" d="M -51.026125 62.36375 L -34.01675 62.36375 " transform="matrix(1.25,0,0,-1.25,77.34125,112.775)"/>
<path style=" stroke:none;fill-rule:nonzero;fill:rgb(0%,0%,100%);fill-opacity:1;" d="M 47.054688 31.054688 C 47.660156 30.078125 48.1875 30.039062 48.636719 30.019531 C 48.792969 30 48.8125 29.804688 48.8125 29.785156 C 48.8125 29.6875 48.734375 29.628906 48.636719 29.628906 C 48.324219 29.628906 47.953125 29.667969 47.621094 29.667969 C 47.210938 29.667969 46.78125 29.628906 46.390625 29.628906 C 46.3125 29.628906 46.15625 29.628906 46.15625 29.863281 C 46.15625 30 46.253906 30.019531 46.351562 30.019531 C 46.683594 30.039062 46.917969 30.175781 46.917969 30.429688 C 46.917969 30.625 46.742188 30.898438 46.742188 30.898438 L 42.914062 36.992188 L 42.054688 30.390625 C 42.054688 30.175781 42.347656 30.019531 42.914062 30.019531 C 43.089844 30.019531 43.226562 30.019531 43.226562 29.765625 C 43.226562 29.667969 43.128906 29.628906 43.070312 29.628906 C 42.5625 29.628906 42.035156 29.667969 41.507812 29.667969 C 41.292969 29.667969 41.058594 29.667969 40.824219 29.667969 C 40.609375 29.667969 40.375 29.628906 40.160156 29.628906 C 40.0625 29.628906 39.925781 29.628906 39.925781 29.863281 C 39.925781 30.019531 40.023438 30.019531 40.238281 30.019531 C 40.921875 30.019531 40.941406 30.136719 40.980469 30.449219 L 41.957031 38.125 C 41.996094 38.378906 42.054688 38.417969 42.210938 38.417969 C 42.40625 38.417969 42.464844 38.359375 42.5625 38.203125 L 47.054688 31.054688 Z M 47.054688 31.054688 "/>
<path style=" stroke:none;fill-rule:nonzero;fill:rgb(0%,0%,100%);fill-opacity:1;" d="M 52.675781 33.996094 C 52.675781 33.957031 52.636719 33.878906 52.558594 33.878906 C 52.5 33.878906 52.5 33.898438 52.382812 34.015625 L 51.953125 34.503906 C 51.621094 34.035156 51.074219 33.878906 50.546875 33.878906 C 49.316406 33.878906 48.222656 34.875 48.222656 35.890625 C 48.222656 36.007812 48.261719 36.359375 48.515625 36.691406 C 48.808594 37.023438 49.140625 37.101562 49.726562 37.257812 C 49.902344 37.296875 50.332031 37.394531 50.46875 37.433594 C 50.742188 37.492188 51.269531 37.6875 51.269531 38.332031 C 51.269531 39.035156 50.527344 39.875 49.550781 39.875 C 48.769531 39.875 47.851562 39.601562 47.851562 38.644531 C 47.851562 38.546875 47.871094 38.351562 47.910156 38.195312 C 47.910156 38.15625 47.910156 38.15625 47.910156 38.15625 C 47.910156 38.039062 47.8125 38.039062 47.773438 38.039062 C 47.65625 38.039062 47.636719 38.058594 47.617188 38.214844 L 47.167969 39.953125 C 47.148438 39.992188 47.128906 40.03125 47.128906 40.089844 C 47.128906 40.128906 47.167969 40.1875 47.265625 40.1875 C 47.304688 40.1875 47.324219 40.167969 47.441406 40.070312 C 47.539062 39.953125 47.753906 39.679688 47.851562 39.582031 C 48.320312 40.089844 48.984375 40.1875 49.511719 40.1875 C 50.839844 40.1875 51.894531 39.054688 51.894531 38.019531 C 51.894531 37.648438 51.738281 37.296875 51.542969 37.101562 C 51.25 36.789062 51.113281 36.75 49.980469 36.476562 C 49.804688 36.4375 49.511719 36.378906 49.433594 36.339844 C 49.21875 36.261719 48.847656 36.046875 48.847656 35.558594 C 48.847656 34.855469 49.628906 34.171875 50.527344 34.171875 C 51.484375 34.171875 51.933594 34.699219 51.933594 35.519531 C 51.933594 35.636719 51.894531 35.832031 51.894531 35.910156 C 51.894531 36.046875 51.992188 36.046875 52.050781 36.046875 C 52.167969 36.046875 52.1875 35.988281 52.207031 35.851562 L 52.675781 33.996094 Z M 52.675781 33.996094 "/>
<path style="fill:none;stroke-width:0.79701;stroke-linecap:butt;stroke-linejoin:miter;stroke:rgb(100%,0%,0%);stroke-opacity:1;stroke-miterlimit:10;" d="M -0.001125 70.86375 L 1.49575 70.545 L 2.986375 69.595 L 4.48325 68.01375 L 5.973875 65.82 L 7.47075 63.03875 L 8.9645 59.68875 L 10.45825 55.804375 L 11.952 51.41375 L 13.448875 46.566875 L 14.9395 41.298125 L 16.436375 35.6575 L 17.927 29.695 L 19.42075 23.466875 L 20.917625 17.029375 L 22.40825 10.435625 L 23.905125 3.748125 L 25.39575 -2.9675 L 26.892625 -9.664375 L 28.386375 -16.2675 L 29.880125 -22.73 L 31.373875 -28.98625 L 32.87075 -34.98 L 34.361375 -40.658125 L 35.85825 -45.976875 L 37.348875 -50.876875 L 38.842625 -55.320625 L 40.3395 -59.2675 L 41.830125 -62.683125 L 43.327 -65.53 L 44.817625 -67.7925 L 46.3145 -69.439375 L 47.80825 -70.4675 L 49.302 -70.858125 L 50.79575 -70.61125 L 52.292625 -69.733125 L 53.78325 -68.226875 L 55.280125 -66.108125 L 56.77075 -63.3925 L 58.2645 -60.108125 L 59.761375 -56.28 L 61.252 -51.951875 L 62.748875 -47.151875 L 64.2395 -41.93 L 65.736375 -36.326875 L 67.230125 -30.401875 L 68.723875 -24.201875 L 70.217625 -17.78 L 71.7145 -11.201875 L 73.205125 -4.526875 L 74.702 2.191875 L 76.192625 8.891875 L 77.686375 15.5075 L 79.18325 21.98875 L 80.673875 28.273125 L 82.17075 34.30125 L 83.661375 40.02 L 85.15825 45.379375 L 86.652 50.3325 L 88.14575 54.829375 L 89.6395 58.835625 L 91.136375 62.31375 L 92.627 65.2325 L 94.12075 67.560625 L 95.6145 69.2825 L 97.10825 70.379375 L 98.605125 70.845 L 100.09575 70.67625 L 101.592625 69.866875 L 103.08325 68.435625 L 104.580125 66.3825 L 106.073875 63.735625 L 107.567625 60.51375 L 109.061375 56.75125 L 110.55825 52.473125 L 112.048875 47.72625 L 113.542625 42.55125 L 115.036375 36.991875 L 116.530125 31.10125 L 118.027 24.929375 L 119.517625 18.5325 L 121.0145 11.97 L 122.505125 5.30125 L 124.002 -1.414375 L 125.49575 -8.120625 L 126.9895 -14.74875 L 128.48325 -21.24875 L 129.980125 -27.558125 L 131.47075 -33.620625 L 132.9645 -39.376875 L 134.45825 -44.78 L 135.952 -49.78 L 137.448875 -54.33625 L 138.9395 -58.39875 L 140.436375 -61.939375 L 141.927 -64.920625 L 143.423875 -67.32375 L 144.917625 -69.11125 L 146.411375 -70.283125 L 147.905125 -70.826875 L 149.402 -70.73 L 150.892625 -69.995625 L 152.386375 -68.633125 L 153.880125 -66.651875 L 155.373875 -64.07375 L 156.87075 -60.9175 L 158.361375 -57.214375 L 159.85825 -52.995625 L 161.348875 -48.305 L 162.84575 -43.170625 L 164.3395 -37.655 L 165.83325 -31.79875 L 167.327 -25.655 L 168.823875 -19.283125 L 170.3145 -12.73625 L 171.80825 -6.076875 L 173.302 0.63875 L 174.79575 7.345 L 176.292625 13.98875 L 177.78325 20.5075 L 179.280125 26.841875 L 180.77075 32.929375 L 182.267625 38.72625 L 183.761375 44.173125 L 185.255125 49.22625 L 186.748875 53.8325 L 188.24575 57.9575 L 189.736375 61.554375 L 191.230125 64.6075 L 192.723875 67.07625 L 194.217625 68.935625 L 195.7145 70.185625 L 197.205125 70.795 L 198.702 70.77 L 200.192625 70.110625 L 201.6895 68.82 L 203.18325 66.91375 L 204.677 64.398125 L 206.17075 61.310625 L 207.661375 57.67 L 209.15825 53.5075 L 210.652 48.86375 L 212.14575 43.785625 L 213.6395 38.310625 L 215.136375 32.48875 L 216.627 26.379375 L 218.123875 20.0325 L 219.6145 13.50125 L 221.111375 6.85125 L 222.605125 0.141875 " transform="matrix(1.25,0,0,-1.25,77.34125,112.775)"/>
<path style="fill:none;stroke-width:0.79701;stroke-linecap:butt;stroke-linejoin:miter;stroke:rgb(0%,0%,100%);stroke-opacity:1;stroke-miterlimit:10;" d="M -0.001125 -29.9925 L 1.49575 -25.945625 L 2.986375 -21.6675 L 4.48325 -17.195625 L 5.973875 -12.564375 L 7.47075 -7.826875 L 8.9645 -3.014375 L 10.45825 1.82 L 11.952 6.641875 L 13.448875 11.4075 L 14.9395 16.066875 L 16.436375 20.5825 L 17.927 24.910625 L 19.42075 29.016875 L 20.917625 32.860625 L 22.40825 36.410625 L 23.905125 39.6325 L 25.39575 42.498125 L 26.892625 44.9825 L 28.386375 47.060625 L 29.880125 48.716875 L 31.373875 49.935625 L 32.87075 50.70125 L 34.361375 51.016875 L 35.85825 50.866875 L 37.348875 50.26375 L 38.842625 49.2075 L 40.3395 47.710625 L 41.830125 45.7825 L 43.327 43.441875 L 44.817625 40.716875 L 46.3145 37.616875 L 47.80825 34.185625 L 49.302 30.441875 L 50.79575 26.42625 L 52.292625 22.173125 L 53.78325 17.72 L 55.280125 13.1075 L 56.77075 8.37625 L 58.2645 3.57625 L 59.761375 -1.264375 L 61.252 -6.089375 L 62.748875 -10.858125 L 64.2395 -15.533125 L 65.736375 -20.070625 L 67.230125 -24.420625 L 68.723875 -28.555 L 70.217625 -32.43 L 71.7145 -36.0175 L 73.205125 -39.276875 L 74.702 -42.18625 L 76.192625 -44.714375 L 77.686375 -46.839375 L 79.18325 -48.54875 L 80.673875 -49.814375 L 82.17075 -50.639375 L 83.661375 -51.001875 L 85.15825 -50.908125 L 86.652 -50.358125 L 88.14575 -49.355 L 89.6395 -47.905 L 91.136375 -46.026875 L 92.627 -43.73625 L 94.12075 -41.04875 L 95.6145 -37.995625 L 97.10825 -34.595625 L 98.605125 -30.889375 L 100.09575 -26.905 L 101.592625 -22.67375 L 103.08325 -18.245625 L 104.580125 -13.64875 L 106.073875 -8.933125 L 107.567625 -4.133125 L 109.061375 0.704375 L 110.55825 5.5325 L 112.048875 10.31375 L 113.542625 14.998125 L 115.036375 19.55125 L 116.530125 23.92625 L 118.027 28.085625 L 119.517625 31.998125 L 121.0145 35.616875 L 122.505125 38.91375 L 124.002 41.866875 L 125.49575 44.441875 L 126.9895 46.616875 L 128.48325 48.373125 L 129.980125 49.691875 L 131.47075 50.56375 L 132.9645 50.9825 L 134.45825 50.941875 L 135.952 50.441875 L 137.448875 49.491875 L 138.9395 48.095 L 140.436375 46.266875 L 141.927 44.02 L 143.423875 41.379375 L 144.917625 38.36375 L 146.411375 35.004375 L 147.905125 31.3325 L 149.402 27.37625 L 150.892625 23.17625 L 152.386375 18.766875 L 153.880125 14.18875 L 155.373875 9.4825 L 156.87075 4.68875 L 158.361375 -0.1425 L 159.85825 -4.976875 L 161.348875 -9.76125 L 162.84575 -14.464375 L 164.3395 -19.033125 L 165.83325 -23.433125 L 167.327 -27.620625 L 168.823875 -31.558125 L 170.3145 -35.214375 L 171.80825 -38.555 L 173.302 -41.545625 L 174.79575 -44.1675 L 176.292625 -46.38625 L 177.78325 -48.189375 L 179.280125 -49.56125 L 180.77075 -50.48625 L 182.267625 -50.955 L 183.761375 -50.970625 L 185.255125 -50.526875 L 186.748875 -49.62375 L 188.24575 -48.28 L 189.736375 -46.49875 L 191.230125 -44.29875 L 192.723875 -41.705 L 194.217625 -38.733125 L 195.7145 -35.414375 L 197.205125 -31.77375 L 198.702 -27.851875 L 200.192625 -23.67375 L 201.6895 -19.283125 L 203.18325 -14.726875 L 204.677 -10.03 L 206.17075 -5.245625 L 207.661375 -0.4175 L 209.15825 4.41375 L 210.652 9.210625 L 212.14575 13.923125 L 213.6395 18.5075 L 215.136375 22.929375 L 216.627 27.145 L 218.123875 31.11375 L 219.6145 34.810625 L 221.111375 38.185625 L 222.605125 41.22 " transform="matrix(1.25,0,0,-1.25,77.34125,112.775)"/>
</g>
</svg>
